/* XPM */
static char * C:\Users\Andrew\Desktop\GZD_GPL\whitcon_xpm[] = {
"48 48 173 2",
"  	c #010101",
". 	c #020202",
"+ 	c #040404",
"@ 	c #060606",
"# 	c #080808",
"$ 	c #0B0B0B",
"% 	c #0C0C0C",
"& 	c #0D0D0D",
"* 	c #101010",
"= 	c #151515",
"- 	c #191919",
"; 	c #161616",
"> 	c #505050",
", 	c #545454",
"' 	c #4F4F4F",
") 	c #4E4E4E",
"! 	c #4B4B4B",
"~ 	c #484848",
"{ 	c #464646",
"] 	c #404040",
"^ 	c #3A3A3A",
"/ 	c #363636",
"( 	c #2F2F2F",
"_ 	c #2C2C2C",
": 	c #282828",
"< 	c #2E2E2E",
"[ 	c #3D3D3D",
"} 	c #3B3B3B",
"| 	c #030303",
"1 	c #000000",
"2 	c #050505",
"3 	c #070707",
"4 	c #090909",
"5 	c #0A0A0A",
"6 	c #0E0E0E",
"7 	c #141414",
"8 	c #181818",
"9 	c #111111",
"0 	c #494949",
"a 	c #444444",
"b 	c #383838",
"c 	c #373737",
"d 	c #353535",
"e 	c #333333",
"f 	c #212121",
"g 	c #0F0F0F",
"h 	c #121212",
"i 	c #222222",
"j 	c #3F3F3F",
"k 	c #131313",
"l 	c #171717",
"m 	c #1E1E1E",
"n 	c #575757",
"o 	c #4C4C4C",
"p 	c #424242",
"q 	c #343434",
"r 	c #2A2A2A",
"s 	c #262626",
"t 	c #1F1F1F",
"u 	c #1A1A1A",
"v 	c #414141",
"w 	c #454545",
"x 	c #393939",
"y 	c #242424",
"z 	c #252525",
"A 	c #1B1B1B",
"B 	c #1D1D1D",
"C 	c #3E3E3E",
"D 	c #232323",
"E 	c #1C1C1C",
"F 	c #3C3C3C",
"G 	c #323232",
"H 	c #303030",
"I 	c #474747",
"J 	c #292929",
"K 	c #515151",
"L 	c #4D4D4D",
"M 	c #4A4A4A",
"N 	c #555555",
"O 	c #5B5B5B",
"P 	c #5F5F5F",
"Q 	c #5E5E5E",
"R 	c #434343",
"S 	c #565656",
"T 	c #535353",
"U 	c #585858",
"V 	c #595959",
"W 	c #5C5C5C",
"X 	c #5A5A5A",
"Y 	c #2D2D2D",
"Z 	c #2B2B2B",
"` 	c #202020",
" .	c #5D5D5D",
"..	c #272727",
"+.	c #666666",
"@.	c #686868",
"#.	c #626262",
"$.	c #616161",
"%.	c #313131",
"&.	c #707070",
"*.	c #797979",
"=.	c #636363",
"-.	c #525252",
";.	c #868686",
">.	c #898989",
",.	c #7B7B7B",
"'.	c #B3B3B3",
").	c #C5C5C5",
"!.	c #656565",
"~.	c #646464",
"{.	c #6A6A6A",
"].	c #6B6B6B",
"^.	c #777777",
"/.	c #7E7E7E",
"(.	c #8A8A8A",
"_.	c #6C6C6C",
":.	c #A8A8A8",
"<.	c #888888",
"[.	c #767676",
"}.	c #787878",
"|.	c #676767",
"1.	c #808080",
"2.	c #8F8F8F",
"3.	c #6F6F6F",
"4.	c #747474",
"5.	c #858585",
"6.	c #818181",
"7.	c #737373",
"8.	c #878787",
"9.	c #606060",
"0.	c #969696",
"a.	c #6D6D6D",
"b.	c #919191",
"c.	c #8C8C8C",
"d.	c #838383",
"e.	c #696969",
"f.	c #848484",
"g.	c #757575",
"h.	c #929292",
"i.	c #8B8B8B",
"j.	c #5F605F",
"k.	c #424243",
"l.	c #3F3F40",
"m.	c #4C4D4D",
"n.	c #636362",
"o.	c #434141",
"p.	c #313637",
"q.	c #464B4C",
"r.	c #7A7878",
"s.	c #3C3C3D",
"t.	c #616061",
"u.	c #363B3B",
"v.	c #403331",
"w.	c #7A6C6B",
"x.	c #727676",
"y.	c #5D5D5E",
"z.	c #313C3E",
"A.	c #441D16",
"B.	c #53342F",
"C.	c #263133",
"D.	c #444243",
"E.	c #060808",
"F.	c #272B2A",
"G.	c #585757",
"H.	c #7C7C7C",
"I.	c #262727",
"J.	c #2A2B2B",
"K.	c #979797",
"L.	c #939393",
"M.	c #7F7F7F",
"N.	c #828282",
"O.	c #727272",
"P.	c #6E6E6E",
"    . + @ # $ % & * = - ; * % + = > , ' ' ) ! ~ { ] ^ / ( _ : < [ } [ < |   | | | | . . . . . . ",
"1     | 2 3 4 5 $ 6 7 8 ; 9 % + ; > , ) 0 a ] [ b c d e f g g h i d j } 9 1 | | | | . .         ",
"1       + @ 3 4 5 % k 8 l h & . m n o a p ^ b b / / q e r 6 5 5 3 g s [ t | | | | . . .         ",
"1       + 2 @ 3 4 5 h u - h % . f ~ v w w [ ^ x b / q q y 6 g g g % 5 z i 4 @ . | | . .         ",
"1       | + 2 @ 3 4 9 A 8 * $ @ B [ { a [ C ^ x b / e / D & g g g * g 7 h & # . | | . .         ",
"1 1 1   | + 2 @ @ 5 = E 8 g $ @ A ] a v F C x / d G H s = 4 # 4 4 $ g k 9 & 3 | + | . .         ",
"1 1 1   | + 2 2 @ % 8 A 7 @ 1   s p ] a I { a p C j [ G r z f A 8 k % % 4 . 1 1 1 1 1           ",
"1       | 2 @ 2   3 h l k 8 J ^ K ' L K K > ) o M M M M p v { I { v F q ( _ - 7 = $   1 1 1     ",
"1       + @ + $ i d ! , N O P Q , K K L ! 0 0 ~ { { I R } F C ] j p { ~ M o 0 ! o ~ j } q ;     ",
"1   1 | @ @ @ $ A G o S T K U V W X U N K L ! 0 ~ w j F } } } ^ ^ } ^ ^ j j { ! ~ I { { C u 1   ",
"1     | @ # 4 4 2 & u _ Y D y Z b q d [ { ~ ! ! ! ~ p p j j p p v p ] C } e Z : ` D Z 8 . 1 . . ",
"1     . 3 4 5 % & * = B s m B m $ # 3 & ; B f y z t t t B t ` ` ` B - k 5 3 5 k h g $ 1 1       ",
"      + # 4 % 6 g * 8 t ` B R x 7 7 * g + 3 @ h h 6 g 6 h h k 9 g 3 1 1 2 # 4 % @ 1 1   . .   1 ",
"      + # 5 & g 9 h 7 B f s  .C = e ( y ^ ` : 7 & ..: 7 6 5 5 5 k ` E u & k 9 1 . | | . . .   1 ",
"      + # $ & * h 7 7 8 t J +.a = a K F X O @.Z 9 R 0 y c R Y ~ f I K } 5 8 z 1 | | | . . . . 1 ",
"      + # $ & * 7 ; l l m J W j l F #.+.W $.S %.D &.*.F ! =.n -.0 V  .F . _ z 1 + | | . . . .   ",
"      + # $ & 9 7 l 8 8 t ..M j 8 x =.;.>.,.@./ ) '.).,.I n !.~.{.].$.x ` C - 1 + | | | . . .   ",
"1     2 # 5 6 9 7 ; 8 A ` J } ^ m d X ^./.(._.e p ;.:.<.~.[.^.}.[.,.|.c d d 3   + | | | | | .   ",
"1     2 3 4 & 9 = l u E A J ^ q z d L {.1.2.#.` Y 3.W 0 4.<.5.6.*.7. ._ _ E 1 2 + | | | | | | 1 ",
"1     + @ 4 $ g = - 8 ; i r x C Z d > |.8.<.X _ 9.0.7.v a.b.<.c.d.e.~ i 5 + + 2 + | | | | | | 1 ",
"1     + @ # $ g k 7 9 s p q < ] / / I _.f.#.' { X ^.-.F V ;.2.5.g.' d - 1 2 3 2 | + | | | | + 1 ",
"1     + @ # 5 6 * & - [ ] ^ Y } w } [ a.{.0 N {.S / x o T Q 1.,.9.C %.; . 3 @ 2 |     . | + + 1 ",
"1 1   | + 3 $ % & % D w C q q ~ > C I ~.P w 9.c.h.6.i.a.-.M +.a.T v ( g 2 # 2 2 +   1 1   2 + 1 ",
"1 1     . + # 5 % % J ~ v H ( N j.k.l.X > n [.e.].&.|.W -.) =.W ' ] Y $ @ 3 2 2 +   1 1 1 . | 1 ",
"1 1     . + 2 # $ 5 J I p d ..m.n.o.p.q.r.[.S =.{.+.{.Q > ) 9.X ' v i + 3 2 2 2 |   1 1 1 1 | 1 ",
"1 1     . | @ # 5 4 ..p R } s s.t.u.v.w.x.[ w O e._.@.N P X =. .~ G & + @ 2 2 + . 1 1 1 1   | 1 ",
"1 1       | + @ + & : ^ v j ( J y.z.A.B.C.n 7. .o o K $.[.P V ! C A   # + 2 | | . 1 1 1 1 . | 1 ",
"1 1       . + 1 3 ` ..e [ ] ^ s b D.E.F.G.9.4.;.;.;.<.H.@., ~ v s + # @ + | | |   1 1 1 1 2 | 1 ",
"1 1         1 + i Y Z H b [ [ d f %.I.J.M N @.8.K.L.M.].S > L Z | 3 5 | | | | .   1 1   | @ | 1 ",
"1 1 1   1 1 # i r J H d d x } x H : Y = c S +.N.c.c.H.#.n S < 1 # 6 + | | | .   1 1 1 . 2 +   1 ",
"1 1 1 1 1 9 J < Z _ r q C c c b / < < u @ r p W a.&.]. .~ B 2 9 6 3 + | | | . 1 1 1 1 . 2 +   1 ",
"1 1 1 $ i e q e e G < : x [ q b / e ( r * 1 1 . * 7 7 * . @ z l . @ @ + | | 1 1 1 1 1 . 2 +   1 ",
"@ h f G x b x x x x d _ ../ } F x / e < ` u M } h k E t e p =   4 4 # 2 |   1 1 1 1   + + 2 . 1 ",
": %./ c c x } F } } x d _ r ] w [ ^ d G _ t ~ f.P R w M ' x # 1 4 5 4 2 . 1 1 1 1 1 + 2 2 2   1 ",
"H < < H q / x ^ } } x b / _ G w ] } ^ q G Z 7 d }.O.W $.Z b +.e | . 4 2   1 1 1 1 1 | 2 2 @   1 ",
"d q H < ( %.q / b b b b c d _ c p c b ^ c %.: h Y &.H.w 5 m c / Y g 1 +   1 1 1 1 1 1       1 1 ",
"[ ^ c d e %.G e q d c b c d H ( x / e c b b G r k : [.c 9 B * # z w t 8 ; 2 1 1 1 1 1 1 1 1 1 1 ",
"v j F ^ c d q d q q d / / / %.r ( x x d H G c G _ 8 e j f : : i $ ] n D z B 3 1 1   1 1 1 1 1 1 ",
"I { w R j [ ^ x b / / c b c e _ : ^ w p } d q G H H t z s D ..: - ` Q v ` s u % 1 1 1 1 1 1 1 1 ",
"o o ! 0 { w p j C [ [ F } ^ x c ( _ H } R p [ v R / H i Z x i D z 7 } $.Y ` z E = . 1 1 1 1 1 1 ",
"o o o o o 0 I w p v v ] C C [ F b ( ....< q F a } %.q H z v 0 i B = J W 0 y D y B 8 . 1 1 1 1 1 ",
"L L L L ) ) o ! { R R R p v C F } / %.r z ..( r D d c e r m K S E % l R S p s Z z m l 1 1 1 1 1 ",
"L ) L L L ' ' ) L M ~ { w p v ] [ x q H ( G Z f G ] } d G i D 9.K 8 % 9 / o p r e ` t & 1 1 1 1 ",
") ) L L ) ' > ' ' > L ! ! ~ I w p [ / G < H ..Y I { F b / H E q P.! ; & g e K b ( / m - . 1 1 1 ",
"! M ! o o ) K K > ' ' ) ) L ! M { p F d H r Y ~ T L ] } c e Z A , ,.j g g * ^ 0 Y C < A 6 1 1 1 ",
"] I ~ ~ 0 M L ' > ) ) ' ) ' ' L M I a [ e H I N -.K 0 ] [ b e i ( 4.4.r g 9 h R j ( ] z 7   1 1 ",
"G [ w w w I { { M ! ! L ' ) ' ) ! M ~ a F q ] K K -.> ~ p C c H A o 8., k 8 9 - o / x e - @ 1 1 ",
"r H [ a a w w p v a { ~ ! ! o L ! M ~ { R F e a -.K -.K ~ a C d y ( 4.[.< * u % _ > G F r $ 1 . "};
